<svg id="Layer_1" data-name="Layer 1" xmlns="http://www.w3.org/2000/svg" viewBox="0 0 100 180"><defs><style>.cls-1{fill:#f4f4f4;}.cls-2{fill:#d2d2d2;}.cls-3{fill:#c7ced3;}</style></defs><title>Artboard 1</title><g id="Artboard_2" data-name="Artboard 2"><polygon class="cls-1" points="89.13 45.1 89.13 154.54 16.53 154.54 16.53 118.42 16.53 31.72 89.13 31.72 89.13 45.1"/><path class="cls-2" d="M80.61,174.51H19.39A12.68,12.68,0,0,1,6.73,161.84V18.15A12.68,12.68,0,0,1,19.39,5.49H80.61A12.68,12.68,0,0,1,93.27,18.15V161.84A12.68,12.68,0,0,1,80.61,174.51ZM19.39,7.54A10.62,10.62,0,0,0,8.78,18.15V161.84a10.63,10.63,0,0,0,10.61,10.62H80.61a10.63,10.63,0,0,0,10.61-10.62V18.15A10.62,10.62,0,0,0,80.61,7.54Z"/><path class="cls-2" d="M64,98.2V96.36h4.66V91.72h1.87V98.2Z"/><path class="cls-2" d="M29.49,91.68h1.86v4.63H36V98.2H29.49Z"/><path class="cls-2" d="M29.49,57.19h6.45V59H31.43v4.7H29.49Z"/><path class="cls-2" d="M43.44,61.93v9.18H34.25V61.93Zm-7.32,1.83v5.48h5.42V63.76Z"/><path class="cls-2" d="M56.56,71.09V61.91h9.18v9.18Zm1.9-7.33v5.49H63.9V63.76Z"/><path class="cls-2" d="M65.77,93.49H56.59V84.32h9.18Zm-7.33-1.87h5.48V86.16H58.44Z"/><path class="cls-2" d="M43.44,89.8v1.85h3.72l0,0,.09,1.83H41.67l-.1-1.7H39.79l-.08,1.7H37.93l-.09-1.7H36.05v1.71H34.23V89.83h9.26Z"/><path class="cls-2" d="M47.22,63.72v-1.8h5.53l.08,1.73,1.75.11v1.76l-1.75.12v1.75H50.91v1.93l0,0h-1.9l0,0V65.63l1.77-.1V63.69H47.19Z"/><path class="cls-2" d="M49.09,89.83V88l-1.87-.1V82.34l0,0H49V86h5.53v3.69h-1.7L52.75,88H51v1.79H49.05Z"/><path class="cls-2" d="M56.56,80.47H52.87v1.84l1.73.09v1.74H51V78.61l0,0h1.83l.11-1.86h1.82l0,0v1.89h1.92l0,0v1.9Z"/><path class="cls-2" d="M64,80.47h-1.8l-.12,1.83H60.31V80.47H58.38l0,0v-1.9l0,0h3.76V76.75l0,0h1.82L64,75h1.76v3.62L64,78.69v1.83Z"/><path class="cls-2" d="M37.9,84.24v-1.9l0,0h1.81v-1.9H37.86l0,0V76.78h1.85l0,0v1.86h1.9l0,5.63,0,0H37.86Z"/><path class="cls-2" d="M70.43,63.66H68.67V59.09H64.05V57.25h6.38Z"/><path class="cls-2" d="M50.91,69.32h1.84V73l1.89.11v1.83l0,0-5.63,0V73.08L51,73V69.28Z"/><path class="cls-2" d="M47.22,82.34h-1.9l0,0V80.54l-1.9-.1V78.62l5.63,0,0,0v1.82l-1.86.1v1.84Z"/><path class="cls-2" d="M45.32,82.34v3.73H41.6l0,0V84.2l0,0h1.84l.1-1.87h1.83Z"/><path class="cls-2" d="M37.9,86.07H36.08L36,87.89H34.24V84.24H37.9l0,0v1.9Z"/><path class="cls-2" d="M39.75,74.89H36l0,0v-1.8h3.69v1.8Z"/><path class="cls-2" d="M45.36,74.91V71.2h1.86l0,0,0,3.76-1.9,0Z"/><path class="cls-2" d="M62.14,76.75H60.33V73.11H62.1V76.8Z"/><path class="cls-2" d="M41.6,86.07v1.8H37.9v-1.8l0,0h3.77Z"/><path class="cls-2" d="M64,80.51h1.8v1.76H64v-1.8Z"/><path class="cls-2" d="M47.19,69.33h1.9l0,0v1.87H47.19l0,0V69.3Z"/><path class="cls-2" d="M47.22,69.29h-1.8V67.5h1.77v1.81Z"/><path class="cls-2" d="M43.49,89.83V88h1.77v1.77H43.44Z"/><path class="cls-2" d="M49.05,89.79V91.7l0,0-2,0,0,0V89.83h1.91Z"/><path class="cls-2" d="M47.19,63.69v1.8H45.41V63.73h1.81Z"/><path class="cls-2" d="M41.63,74.91v-1.8h1.83v1.8l0,0H41.6Z"/><path class="cls-2" d="M49.05,91.7h1.8v1.78H49.08V91.67Z"/><path class="cls-2" d="M52.87,91.73h1.72v1.74H52.87Z"/><path class="cls-2" d="M43.46,74.91h1.9l0,0v1.9H43.46c0-.63,0-1.26,0-1.9Z"/><path class="cls-2" d="M56.51,74.89v1.89l0,0h-1.9l0,0V74.89l0,0h1.89Z"/><path class="cls-2" d="M39.75,74.91h1.9l0,0,0,1.9-1.9,0,0,0v-1.9Z"/><path class="cls-2" d="M51,78.61h-1.9l0,0,0-1.89h1.86v1.89Z"/><path class="cls-2" d="M36,74.89v1.8H34.23V74.92h1.82Z"/><path class="cls-2" d="M56.51,76.78h1.87v1.86l0,0H56.51l0,0V76.75Z"/><path class="cls-2" d="M36,80.47h-1.8V78.7H36v1.81Z"/><path class="cls-2" d="M56.54,74.92v-1.8h1.77v1.77h-1.8Z"/><path class="cls-2" d="M36,80.51h1.9l0,0v1.9l0,0H36V80.47Z"/><path class="cls-2" d="M58.38,80.47v1.8H56.56v-1.8l0,0h1.89Z"/><path class="cls-2" d="M39.7,65.66v1.72H37.93V65.66Z"/><path class="cls-2" d="M62.08,65.67v1.7H60.31v-1.7Z"/><path class="cls-2" d="M60.33,88h1.73v1.73H60.33Z"/><path class="cls-2" d="M49.09,76.78h-1.9V74.89h1.9Z"/><circle class="cls-2" cx="42.54" cy="77.69" r="1.34"/><path class="cls-3" d="M57.13,18.82H42.37a.93.93,0,0,1-.82-1h0a.94.94,0,0,1,.82-1H57.13a.94.94,0,0,1,.82,1h0A.94.94,0,0,1,57.13,18.82Z"/><path class="cls-2" d="M86.91,151.47H13.09a1,1,0,0,1-1-1V27.62a1,1,0,0,1,1-1H86.91a1,1,0,0,1,1,1V150.44A1,1,0,0,1,86.91,151.47Zm-72.8-2.05H85.89V28.65H14.11Z"/><circle class="cls-1" cx="51.8" cy="164.27" r="6.17"/><path class="cls-2" d="M49.75,169.83a7.21,7.21,0,1,1,7.2-7.21h0A7.22,7.22,0,0,1,49.75,169.83Zm0-12.35a5.15,5.15,0,1,0,5.15,5.15h0A5.16,5.16,0,0,0,49.75,157.48Z"/><path class="cls-2" d="M23.7,110.87A1.62,1.62,0,0,1,25.53,109l.12.62c-.68.07-1,.41-1,1h.61v1.59H23.7Zm2.5,0A1.61,1.61,0,0,1,28,109l.13.62c-.68.07-1,.41-1,1h.61v1.59H26.21Z"/><path class="cls-2" d="M30.72,110.57l-1.2.3-.32-1.23,2-.6h1V116H30.72Z"/><path class="cls-2" d="M34.08,114.77l2.29-1.88c.86-.71,1.19-1.08,1.19-1.64a.84.84,0,0,0-.79-.9h-.13c-.54,0-.9.3-1.41.93l-1.06-.87A2.85,2.85,0,0,1,36.74,109a2.12,2.12,0,0,1,2.37,2.13v0c0,1.15-.59,1.72-1.81,2.67l-1.13.87h3V116h-5.1Z"/><path class="cls-2" d="M40.6,114.9l1-1a2.15,2.15,0,0,0,1.66.82.87.87,0,0,0,1-.75.17.17,0,0,0,0-.07v0c0-.56-.51-.88-1.35-.88H42.3l-.24-1,1.64-1.64H41v-1.3h4.66v1.14l-1.75,1.67a1.89,1.89,0,0,1,1.85,1.92h0a2.24,2.24,0,0,1-2.46,2.26A3.33,3.33,0,0,1,40.6,114.9Z"/><path class="cls-2" d="M54.19,114.48H50.82l-.25-1.07L54.36,109h1.28v4.22h.92v1.23h-.92V116H54.19Zm0-1.23v-2.14l-1.83,2.14Z"/><path class="cls-2" d="M58,115.05l.91-1.09a2.39,2.39,0,0,0,1.64.75c.71,0,1.16-.34,1.16-.95h0c0-.59-.51-.94-1.23-.94a3.11,3.11,0,0,0-1.16.26l-.87-.58.2-3.4h4.23v1.33H59.92l-.08,1.19a3.42,3.42,0,0,1,.9-.12,2.12,2.12,0,0,1,2.41,2.21h0a2.34,2.34,0,0,1-2.61,2.38A3.54,3.54,0,0,1,58,115.05Z"/><path class="cls-2" d="M65.59,115.35a3.4,3.4,0,0,1-.82-2.61h0c0-2.13,1-3.76,3-3.76a3.21,3.21,0,0,1,2.16.76l-.8,1.17a2.12,2.12,0,0,0-1.41-.55c-1,0-1.34,1-1.39,1.59a2.44,2.44,0,0,1,1.43-.44,2.17,2.17,0,0,1,2.42,2.2h0a2.43,2.43,0,0,1-2.63,2.37A2.59,2.59,0,0,1,65.59,115.35Zm3.11-1.58h0c0-.58-.46-1-1.2-1s-1.18.41-1.18,1v0a1.06,1.06,0,0,0,1.2,1A1,1,0,0,0,68.7,113.77Z"/><path class="cls-2" d="M71.55,111.63c.68-.07,1-.41,1-1h-.61v-1.58H73.5v1.33a1.61,1.61,0,0,1-1.82,1.84Zm2.5,0c.68-.07,1-.41,1-1h-.61v-1.58H76v1.33a1.61,1.61,0,0,1-1.82,1.84Z"/></g></svg>